<?xml version="1.0" encoding="utf-8"?>
<!-- Generator: Adobe Illustrator 22.0.1, SVG Export Plug-In . SVG Version: 6.00 Build 0)  -->
<svg version="1.1" xmlns="http://www.w3.org/2000/svg" xmlns:xlink="http://www.w3.org/1999/xlink" x="0px" y="0px"
	 viewBox="0 0 72 72" style="enable-background:new 0 0 72 72;" xml:space="preserve">
<style type="text/css">
	.st0{fill:#3C6DF0;}
	.st1{fill:#B0BEF3;}
	.st2{fill:#E7E9F7;}
	.st3{fill:#FFFFFF;}
	.st4{fill:none;stroke:#3C6DF0;stroke-width:1.0159;stroke-linecap:round;stroke-linejoin:round;stroke-miterlimit:10;}
</style>
<g id="Mockup">
</g>
<g id="Mobile">
	<g>
		<path class="st2" d="M57.1,47.2V24.8c0-0.6-0.3-1.1-0.8-1.4L36.8,12.2c-0.5-0.3-1.1-0.3-1.7,0L15.8,23.4c-0.5,0.3-0.8,0.8-0.8,1.4
			v22.4c0,0.6,0.3,1.1,0.8,1.4l19.4,11.2c0.5,0.3,1.1,0.3,1.7,0l19.4-11.2C56.7,48.3,57.1,47.8,57.1,47.2z"/>
		<path class="st0" d="M36,72c-1.2,0-2.3-0.3-3.3-0.9L7.3,56.4c-2.1-1.2-3.3-3.4-3.3-5.8V21.3c0-2.4,1.3-4.6,3.3-5.8L32.7,0.9
			c2.1-1.2,4.6-1.2,6.7,0l25.4,14.7c2.1,1.2,3.3,3.4,3.3,5.8v29.3c0,2.4-1.3,4.6-3.3,5.8L39.3,71.1C38.3,71.7,37.2,72,36,72z
			 M36,2.3c-0.8,0-1.5,0.2-2.2,0.6L8.4,17.5c-1.3,0.8-2.2,2.2-2.2,3.8v29.3c0,1.6,0.8,3,2.2,3.8l25.4,14.7c1.3,0.8,3,0.8,4.4,0
			l25.4-14.7c1.3-0.8,2.2-2.2,2.2-3.8V21.3c0-1.6-0.8-3-2.2-3.8L38.2,2.9C37.5,2.5,36.8,2.3,36,2.3z"/>
		<path class="st0" d="M4.2,22.5c-0.2-0.6-0.2-1.2-0.2-1.7h2.3c0,0.4,0.1,0.8,0.2,1.1L4.2,22.5z"/>
		<g>
			<path class="st0" d="M34.5,25.2v10.6c0,2.7-1.8,4.5-4.9,4.5c-2.9,0-4.5-1.7-4.9-4.2l3-0.6c0.2,1.3,0.9,1.9,1.9,1.9
				c0.9,0,1.7-0.6,1.7-1.9v-7.8h-4.5v-2.6H34.5z"/>
			<path class="st0" d="M36.1,37.9l2.1-2.2c1,1.1,2.3,1.7,3.7,1.7c1.6,0,2.3-0.7,2.3-1.8c0-0.8-0.3-1.4-1.7-1.6l-1.5-0.2
				c-3.1-0.4-4.6-1.9-4.6-4.4c0-2.7,2.1-4.5,5.6-4.5c2.2,0,3.9,0.7,5.2,2.1l-2.2,2.2c-0.7-0.8-1.7-1.4-3.2-1.4
				c-1.4,0-2.2,0.6-2.2,1.4c0,1,0.5,1.4,1.8,1.6l1.5,0.2c3,0.5,4.5,1.9,4.5,4.4c0,2.9-2.1,4.8-5.8,4.8
				C39.1,40.3,37.3,39.3,36.1,37.9z"/>
		</g>
		<path class="st0" d="M46.8,46.6H25.4c-0.6,0-1.1-0.5-1.1-1.1c0-0.6,0.5-1.1,1.1-1.1h21.4c0.6,0,1.1,0.5,1.1,1.1
			C48,46.1,47.5,46.6,46.8,46.6z"/>
	</g>
</g>
</svg>
