<?xml version="1.0" encoding="utf-8"?>
<!-- Generator: Adobe Illustrator 24.0.0, SVG Export Plug-In . SVG Version: 6.00 Build 0)  -->
<svg version="1.1" id="Layer_1" xmlns="http://www.w3.org/2000/svg" xmlns:xlink="http://www.w3.org/1999/xlink" x="0px" y="0px"
	 width="32px" height="32px" viewBox="0 0 32 32" style="enable-background:new 0 0 32 32;" xml:space="preserve">
<path d="M26,2H6C4.9,2,4,2.9,4,4v13c0,4.1,2.2,7.8,5.8,9.7L16,30v-2.3l-5.2-2.8C7.8,23.4,6,20.3,6,17V4h20v12h2V4
	C28,2.9,27.1,2,26,2z"/>
<path d="M30,22h-6v-6h-8v8h6v6h8V22z M18,22v-4h4v4H18z M28,28h-4v-4h4V28z"/>
</svg>
