<?xml version="1.0" encoding="utf-8"?>
<!-- Generator: Adobe Illustrator 24.0.0, SVG Export Plug-In . SVG Version: 6.00 Build 0)  -->
<svg version="1.1" id="Layer_1" xmlns="http://www.w3.org/2000/svg" xmlns:xlink="http://www.w3.org/1999/xlink" x="0px" y="0px"
	 width="32px" height="32px" viewBox="0 0 32 32" style="enable-background:new 0 0 32 32;" xml:space="preserve">
<style type="text/css">
	.st0{fill:url(#SVGID_1_);}
	.st1{fill:#001D6C;}
</style>
<g>
	<linearGradient id="SVGID_1_" gradientUnits="userSpaceOnUse" x1="4" y1="16" x2="28" y2="16">
		<stop  offset="0.1" style="stop-color:#BE95FF"/>
		<stop  offset="0.9" style="stop-color:#4589FF"/>
	</linearGradient>
	<path class="st0" d="M26,2H6C4.9,2,4,2.9,4,4v13c0,4.1,2.2,7.8,5.8,9.7L16,30v-2.3l-5.2-2.8C7.8,23.4,6,20.3,6,17V4h20v12h2V4
		C28,2.9,27.1,2,26,2z"/>
	<path class="st1" d="M28,22h-4v-4c0-1.1-0.9-2-2-2h-4c-1.1,0-2,0.9-2,2v4c0,1.1,0.9,2,2,2h4v4c0,1.1,0.9,2,2,2h4c1.1,0,2-0.9,2-2
		v-4C30,22.9,29.1,22,28,22z M18,22v-4h4v4H18z M28,28h-4v-4h4V28z"/>
</g>
</svg>
